<svg id="Layer_1" data-name="Layer 1" xmlns="http://www.w3.org/2000/svg" viewBox="0 0 1366 768"><defs><style>.cls-1{fill:none;stroke:#dfa300;stroke-miterlimit:10;stroke-width:3px;}</style></defs><path class="cls-1" d="M398.5,61.5s-289.94,242.87-153,273c50,11,403-180,421-87s28,485,207,339,263-91,311-89"/><path class="cls-1" d="M345.5,72.5s-233,268-105,282S695.7,103.55,694.6,240,598.5,740.5,792.5,645.5s306-250,392-198"/><path class="cls-1" d="M267.5,123.5s-167,208,12,182S724.5,130,724,279.77s-180.86,385-60.18,381.34,478.95-208.3,493.68-303.61"/><path class="cls-1" d="M303.56,61.5s-168.06,280-58.06,273,437-298,493-128S570.5,635.06,724,600.28s473.5-44.78,515.5-140.78"/><path class="cls-1" d="M179.5,142.5s-77,170,141,179,234-34,318-28c111.51,8-90,323.56,85.5,306.78s309.5-36.78,356.5,21.22"/><path class="cls-1" d="M196.71,142.5S135.58,451.74,447,347.62,763.22,51.51,651.5,154.5c-128,118-63,361,58,424,231,120.25,414-82,414-82"/><path class="cls-1" d="M1255.5,551.5s-248-45-401,14-214-130-242-297c-24.45-145.84-259,103-346,63s-125-159-125-159"/></svg>