<svg id="Layer_2" data-name="Layer 2" xmlns="http://www.w3.org/2000/svg" viewBox="0 0 600 600"><defs><style>.cls-1{fill:#231f20;stroke:#231f20;stroke-miterlimit:10;}</style></defs><path class="cls-1" d="M0,0V600H600V0ZM190.31,337.57l-24.42-12.83-24.41,12.83,4.66-27.19-19.75-19.25,27.3-4,12.2-24.73,12.21,24.73,27.3,4-19.75,19.25Zm89.4,0L255.3,324.74l-24.42,12.83,4.66-27.19-19.75-19.25,27.3-4,12.21-24.73,12.21,24.73,27.29,4-19.75,19.25Zm89.41,0L344.7,324.74l-24.41,12.83L325,310.38,305.2,291.13l27.29-4,12.21-24.73,12.21,24.73,27.3,4-19.75,19.25Zm89.4,0-24.41-12.83-24.42,12.83,4.66-27.19L394.6,291.13l27.3-4,12.21-24.73,12.2,24.73,27.3,4-19.75,19.25Z"/></svg>