<svg id="Layer_2" data-name="Layer 2" xmlns="http://www.w3.org/2000/svg" viewBox="0 0 600 600"><defs><style>.cls-1{fill:#231f20;stroke:#231f20;stroke-miterlimit:10;}</style></defs><path class="cls-1" d="M0,0V600H600V0ZM235,337.57,210.6,324.74l-24.42,12.83,4.66-27.19-19.75-19.25,27.3-4,12.21-24.73,12.2,24.73,27.3,4-19.75,19.25Zm89.41,0L300,324.74l-24.42,12.83,4.67-27.19-19.76-19.25,27.3-4L300,262.43l12.21,24.73,27.3,4-19.76,19.25Zm89.4,0L389.4,324.74,365,337.57l4.66-27.19L349.9,291.13l27.3-4,12.2-24.73,12.21,24.73,27.3,4-19.75,19.25Z"/></svg>